<svg width="32" height="32" viewBox="0 0 32 32" fill="none" xmlns="http://www.w3.org/2000/svg">
<path d="M16 3C13.3488 3.00319 10.8071 4.08037 8.93239 5.99522C7.05771 7.91008 6.00314 10.5063 6.00001 13.2143C5.99684 15.4273 6.70454 17.5802 8.01455 19.3429C8.01455 19.3429 8.28728 19.7096 8.33183 19.7626L16 29L23.6718 19.7579C23.7118 19.7087 23.9854 19.3429 23.9854 19.3429L23.9864 19.3401C25.2957 17.5782 26.0031 15.4263 26 13.2143C25.9969 10.5063 24.9423 7.91008 23.0676 5.99522C21.1929 4.08037 18.6512 3.00319 16 3ZM16 16.9286C15.2808 16.9286 14.5777 16.7107 13.9797 16.3026C13.3818 15.8945 12.9157 15.3144 12.6404 14.6357C12.3652 13.957 12.2932 13.2102 12.4335 12.4897C12.5738 11.7692 12.9202 11.1073 13.4287 10.5879C13.9373 10.0684 14.5852 9.71468 15.2906 9.57137C15.996 9.42805 16.7271 9.50161 17.3916 9.78273C18.056 10.0639 18.624 10.5399 19.0235 11.1507C19.4231 11.7616 19.6364 12.4797 19.6364 13.2143C19.6352 14.199 19.2517 15.143 18.57 15.8393C17.8883 16.5356 16.9641 16.9273 16 16.9286Z" fill="#333333"/>
</svg>
